<mxfile host="65bd71144e">
    <diagram name="Pagina-1" id="qzB83dGnzqiJjhfnsxtL">
        <mxGraphModel dx="1913" dy="1843" grid="1" gridSize="10" guides="1" tooltips="1" connect="1" arrows="1" fold="1" page="1" pageScale="1" pageWidth="827" pageHeight="1169" math="0" shadow="0">
            <root>
                <mxCell id="0"/>
                <mxCell id="1" parent="0"/>
                <mxCell id="h46Rm4Iv9E7iwNrBsxgi-87" value="CodeKataBattle" style="shape=umlFrame;whiteSpace=wrap;html=1;pointerEvents=0;width=110;height=30;" parent="1" vertex="1">
                    <mxGeometry x="-330" y="-10" width="1400" height="820" as="geometry"/>
                </mxCell>
                <mxCell id="h46Rm4Iv9E7iwNrBsxgi-1" value="Battle Module" style="shape=module;align=left;spacingLeft=20;align=center;verticalAlign=top;whiteSpace=wrap;html=1;" parent="1" vertex="1">
                    <mxGeometry x="20" y="250" width="150" height="50" as="geometry"/>
                </mxCell>
                <mxCell id="h46Rm4Iv9E7iwNrBsxgi-2" value="Notification Module" style="shape=module;align=left;spacingLeft=20;align=center;verticalAlign=top;whiteSpace=wrap;html=1;" parent="1" vertex="1">
                    <mxGeometry x="310" y="50" width="150" height="50" as="geometry"/>
                </mxCell>
                <mxCell id="h46Rm4Iv9E7iwNrBsxgi-3" value="GitHub Handler" style="shape=module;align=left;spacingLeft=20;align=center;verticalAlign=top;whiteSpace=wrap;html=1;" parent="1" vertex="1">
                    <mxGeometry x="520" y="440" width="150" height="50" as="geometry"/>
                </mxCell>
                <mxCell id="h46Rm4Iv9E7iwNrBsxgi-4" value="Tournament Module" style="shape=module;align=left;spacingLeft=20;align=center;verticalAlign=top;whiteSpace=wrap;html=1;" parent="1" vertex="1">
                    <mxGeometry x="20" y="150" width="150" height="50" as="geometry"/>
                </mxCell>
                <mxCell id="h46Rm4Iv9E7iwNrBsxgi-5" value="MessageBroker" style="shape=module;align=left;spacingLeft=20;align=center;verticalAlign=top;whiteSpace=wrap;html=1;" parent="1" vertex="1">
                    <mxGeometry x="310" y="200" width="150" height="50" as="geometry"/>
                </mxCell>
                <mxCell id="h46Rm4Iv9E7iwNrBsxgi-6" value="ManualEval Module" style="shape=module;align=left;spacingLeft=20;align=center;verticalAlign=top;whiteSpace=wrap;html=1;" parent="1" vertex="1">
                    <mxGeometry x="70" y="390" width="150" height="50" as="geometry"/>
                </mxCell>
                <mxCell id="h46Rm4Iv9E7iwNrBsxgi-7" value="SoftwareEval Module" style="shape=module;align=left;spacingLeft=20;align=center;verticalAlign=top;whiteSpace=wrap;html=1;" parent="1" vertex="1">
                    <mxGeometry x="264" y="390" width="150" height="50" as="geometry"/>
                </mxCell>
                <mxCell id="h46Rm4Iv9E7iwNrBsxgi-8" value="Leaderboard Module" style="shape=module;align=left;spacingLeft=20;align=center;verticalAlign=top;whiteSpace=wrap;html=1;" parent="1" vertex="1">
                    <mxGeometry x="590" y="190" width="150" height="50" as="geometry"/>
                </mxCell>
                <mxCell id="h46Rm4Iv9E7iwNrBsxgi-9" value="GroupManagement Module" style="shape=module;align=left;spacingLeft=20;align=center;verticalAlign=top;whiteSpace=wrap;html=1;" parent="1" vertex="1">
                    <mxGeometry x="570" y="310" width="150" height="50" as="geometry"/>
                </mxCell>
                <mxCell id="h46Rm4Iv9E7iwNrBsxgi-10" value="" style="rounded=0;orthogonalLoop=1;jettySize=auto;html=1;endArrow=halfCircle;endFill=0;endSize=6;strokeWidth=1;sketch=0;exitX=0.5;exitY=1;exitDx=0;exitDy=0;" parent="1" source="h46Rm4Iv9E7iwNrBsxgi-2" target="h46Rm4Iv9E7iwNrBsxgi-12" edge="1">
                    <mxGeometry relative="1" as="geometry">
                        <mxPoint x="430" y="195" as="sourcePoint"/>
                    </mxGeometry>
                </mxCell>
                <mxCell id="h46Rm4Iv9E7iwNrBsxgi-11" value="" style="rounded=0;orthogonalLoop=1;jettySize=auto;html=1;endArrow=oval;endFill=0;sketch=0;sourcePerimeterSpacing=0;targetPerimeterSpacing=0;endSize=10;exitX=0.5;exitY=0;exitDx=0;exitDy=0;" parent="1" source="h46Rm4Iv9E7iwNrBsxgi-5" target="h46Rm4Iv9E7iwNrBsxgi-12" edge="1">
                    <mxGeometry relative="1" as="geometry">
                        <mxPoint x="390" y="195" as="sourcePoint"/>
                    </mxGeometry>
                </mxCell>
                <mxCell id="h46Rm4Iv9E7iwNrBsxgi-12" value="" style="ellipse;whiteSpace=wrap;html=1;align=center;aspect=fixed;fillColor=none;strokeColor=none;resizable=0;perimeter=centerPerimeter;rotatable=0;allowArrows=0;points=[];outlineConnect=1;" parent="1" vertex="1">
                    <mxGeometry x="380" y="140" width="10" height="10" as="geometry"/>
                </mxCell>
                <mxCell id="h46Rm4Iv9E7iwNrBsxgi-13" value="" style="rounded=0;orthogonalLoop=1;jettySize=auto;html=1;endArrow=halfCircle;endFill=0;endSize=6;strokeWidth=1;sketch=0;exitX=0;exitY=0;exitDx=0;exitDy=15;exitPerimeter=0;" parent="1" source="h46Rm4Iv9E7iwNrBsxgi-8" target="h46Rm4Iv9E7iwNrBsxgi-15" edge="1">
                    <mxGeometry relative="1" as="geometry">
                        <mxPoint x="430" y="325" as="sourcePoint"/>
                    </mxGeometry>
                </mxCell>
                <mxCell id="h46Rm4Iv9E7iwNrBsxgi-14" value="" style="rounded=0;orthogonalLoop=1;jettySize=auto;html=1;endArrow=oval;endFill=0;sketch=0;sourcePerimeterSpacing=0;targetPerimeterSpacing=0;endSize=10;exitX=1;exitY=0.5;exitDx=0;exitDy=0;" parent="1" source="h46Rm4Iv9E7iwNrBsxgi-5" target="h46Rm4Iv9E7iwNrBsxgi-15" edge="1">
                    <mxGeometry relative="1" as="geometry">
                        <mxPoint x="390" y="325" as="sourcePoint"/>
                    </mxGeometry>
                </mxCell>
                <mxCell id="h46Rm4Iv9E7iwNrBsxgi-15" value="" style="ellipse;whiteSpace=wrap;html=1;align=center;aspect=fixed;fillColor=none;strokeColor=none;resizable=0;perimeter=centerPerimeter;rotatable=0;allowArrows=0;points=[];outlineConnect=1;" parent="1" vertex="1">
                    <mxGeometry x="530" y="210" width="10" height="10" as="geometry"/>
                </mxCell>
                <mxCell id="h46Rm4Iv9E7iwNrBsxgi-16" value="ScoringsTopic&lt;br&gt;Read" style="text;html=1;align=center;verticalAlign=middle;resizable=0;points=[];autosize=1;strokeColor=none;fillColor=none;" parent="1" vertex="1">
                    <mxGeometry x="485" y="170" width="100" height="40" as="geometry"/>
                </mxCell>
                <mxCell id="h46Rm4Iv9E7iwNrBsxgi-17" value="NotificationRead" style="text;html=1;align=center;verticalAlign=middle;resizable=0;points=[];autosize=1;strokeColor=none;fillColor=none;" parent="1" vertex="1">
                    <mxGeometry x="390" y="130" width="110" height="30" as="geometry"/>
                </mxCell>
                <mxCell id="h46Rm4Iv9E7iwNrBsxgi-18" value="" style="rounded=0;orthogonalLoop=1;jettySize=auto;html=1;endArrow=halfCircle;endFill=0;endSize=6;strokeWidth=1;sketch=0;exitX=0;exitY=0;exitDx=0;exitDy=15;exitPerimeter=0;" parent="1" source="h46Rm4Iv9E7iwNrBsxgi-5" target="h46Rm4Iv9E7iwNrBsxgi-20" edge="1">
                    <mxGeometry relative="1" as="geometry">
                        <mxPoint x="430" y="325" as="sourcePoint"/>
                    </mxGeometry>
                </mxCell>
                <mxCell id="h46Rm4Iv9E7iwNrBsxgi-19" value="" style="rounded=0;orthogonalLoop=1;jettySize=auto;html=1;endArrow=oval;endFill=0;sketch=0;sourcePerimeterSpacing=0;targetPerimeterSpacing=0;endSize=10;exitX=1;exitY=0.25;exitDx=0;exitDy=0;" parent="1" source="h46Rm4Iv9E7iwNrBsxgi-4" target="h46Rm4Iv9E7iwNrBsxgi-20" edge="1">
                    <mxGeometry relative="1" as="geometry">
                        <mxPoint x="390" y="325" as="sourcePoint"/>
                    </mxGeometry>
                </mxCell>
                <mxCell id="h46Rm4Iv9E7iwNrBsxgi-20" value="" style="ellipse;whiteSpace=wrap;html=1;align=center;aspect=fixed;fillColor=none;strokeColor=none;resizable=0;perimeter=centerPerimeter;rotatable=0;allowArrows=0;points=[];outlineConnect=1;" parent="1" vertex="1">
                    <mxGeometry x="240" y="185" width="10" height="10" as="geometry"/>
                </mxCell>
                <mxCell id="h46Rm4Iv9E7iwNrBsxgi-21" value="TournamentTopic&lt;br&gt;Write" style="text;html=1;align=center;verticalAlign=middle;resizable=0;points=[];autosize=1;strokeColor=none;fillColor=none;" parent="1" vertex="1">
                    <mxGeometry x="190" y="145" width="110" height="40" as="geometry"/>
                </mxCell>
                <mxCell id="h46Rm4Iv9E7iwNrBsxgi-22" value="" style="rounded=0;orthogonalLoop=1;jettySize=auto;html=1;endArrow=halfCircle;endFill=0;endSize=6;strokeWidth=1;sketch=0;exitX=1;exitY=0.5;exitDx=0;exitDy=0;" parent="1" source="h46Rm4Iv9E7iwNrBsxgi-1" target="h46Rm4Iv9E7iwNrBsxgi-24" edge="1">
                    <mxGeometry relative="1" as="geometry">
                        <mxPoint x="430" y="325" as="sourcePoint"/>
                    </mxGeometry>
                </mxCell>
                <mxCell id="h46Rm4Iv9E7iwNrBsxgi-23" value="" style="rounded=0;orthogonalLoop=1;jettySize=auto;html=1;endArrow=oval;endFill=0;sketch=0;sourcePerimeterSpacing=0;targetPerimeterSpacing=0;endSize=10;exitX=0;exitY=0;exitDx=0;exitDy=35;exitPerimeter=0;" parent="1" source="h46Rm4Iv9E7iwNrBsxgi-5" target="h46Rm4Iv9E7iwNrBsxgi-24" edge="1">
                    <mxGeometry relative="1" as="geometry">
                        <mxPoint x="390" y="325" as="sourcePoint"/>
                    </mxGeometry>
                </mxCell>
                <mxCell id="h46Rm4Iv9E7iwNrBsxgi-24" value="" style="ellipse;whiteSpace=wrap;html=1;align=center;aspect=fixed;fillColor=none;strokeColor=none;resizable=0;perimeter=centerPerimeter;rotatable=0;allowArrows=0;points=[];outlineConnect=1;" parent="1" vertex="1">
                    <mxGeometry x="240" y="250" width="10" height="10" as="geometry"/>
                </mxCell>
                <mxCell id="h46Rm4Iv9E7iwNrBsxgi-25" value="BattleTopic&lt;br&gt;Write" style="text;html=1;align=center;verticalAlign=middle;resizable=0;points=[];autosize=1;strokeColor=none;fillColor=none;" parent="1" vertex="1">
                    <mxGeometry x="220" y="263" width="80" height="40" as="geometry"/>
                </mxCell>
                <mxCell id="h46Rm4Iv9E7iwNrBsxgi-26" value="" style="rounded=0;orthogonalLoop=1;jettySize=auto;html=1;endArrow=halfCircle;endFill=0;endSize=6;strokeWidth=1;sketch=0;exitX=0.5;exitY=0;exitDx=0;exitDy=0;" parent="1" source="h46Rm4Iv9E7iwNrBsxgi-6" target="h46Rm4Iv9E7iwNrBsxgi-28" edge="1">
                    <mxGeometry relative="1" as="geometry">
                        <mxPoint x="430" y="325" as="sourcePoint"/>
                    </mxGeometry>
                </mxCell>
                <mxCell id="h46Rm4Iv9E7iwNrBsxgi-27" value="" style="rounded=0;orthogonalLoop=1;jettySize=auto;html=1;endArrow=oval;endFill=0;sketch=0;sourcePerimeterSpacing=0;targetPerimeterSpacing=0;endSize=10;exitX=0.25;exitY=1;exitDx=0;exitDy=0;" parent="1" source="h46Rm4Iv9E7iwNrBsxgi-5" target="h46Rm4Iv9E7iwNrBsxgi-28" edge="1">
                    <mxGeometry relative="1" as="geometry">
                        <mxPoint x="390" y="325" as="sourcePoint"/>
                    </mxGeometry>
                </mxCell>
                <mxCell id="h46Rm4Iv9E7iwNrBsxgi-28" value="" style="ellipse;whiteSpace=wrap;html=1;align=center;aspect=fixed;fillColor=none;strokeColor=none;resizable=0;perimeter=centerPerimeter;rotatable=0;allowArrows=0;points=[];outlineConnect=1;" parent="1" vertex="1">
                    <mxGeometry x="240" y="330" width="10" height="10" as="geometry"/>
                </mxCell>
                <mxCell id="h46Rm4Iv9E7iwNrBsxgi-30" value="" style="rounded=0;orthogonalLoop=1;jettySize=auto;html=1;endArrow=halfCircle;endFill=0;endSize=6;strokeWidth=1;sketch=0;fontSize=12;curved=1;exitX=0.5;exitY=0;exitDx=0;exitDy=0;" parent="1" source="h46Rm4Iv9E7iwNrBsxgi-7" target="h46Rm4Iv9E7iwNrBsxgi-31" edge="1">
                    <mxGeometry relative="1" as="geometry">
                        <mxPoint x="425" y="325" as="sourcePoint"/>
                    </mxGeometry>
                </mxCell>
                <mxCell id="h46Rm4Iv9E7iwNrBsxgi-31" value="" style="ellipse;whiteSpace=wrap;html=1;align=center;aspect=fixed;fillColor=none;strokeColor=none;resizable=0;perimeter=centerPerimeter;rotatable=0;allowArrows=0;points=[];outlineConnect=1;" parent="1" vertex="1">
                    <mxGeometry x="240" y="330" width="10" height="10" as="geometry"/>
                </mxCell>
                <mxCell id="h46Rm4Iv9E7iwNrBsxgi-32" value="ScoringTopic&lt;br&gt;Write" style="text;html=1;align=center;verticalAlign=middle;resizable=0;points=[];autosize=1;strokeColor=none;fillColor=none;" parent="1" vertex="1">
                    <mxGeometry x="270" y="315" width="90" height="40" as="geometry"/>
                </mxCell>
                <mxCell id="h46Rm4Iv9E7iwNrBsxgi-34" value="" style="rounded=0;orthogonalLoop=1;jettySize=auto;html=1;endArrow=halfCircle;endFill=0;endSize=6;strokeWidth=1;sketch=0;exitX=0.25;exitY=0;exitDx=0;exitDy=0;" parent="1" source="h46Rm4Iv9E7iwNrBsxgi-9" target="h46Rm4Iv9E7iwNrBsxgi-36" edge="1">
                    <mxGeometry relative="1" as="geometry">
                        <mxPoint x="430" y="352" as="sourcePoint"/>
                    </mxGeometry>
                </mxCell>
                <mxCell id="h46Rm4Iv9E7iwNrBsxgi-35" value="" style="rounded=0;orthogonalLoop=1;jettySize=auto;html=1;endArrow=oval;endFill=0;sketch=0;sourcePerimeterSpacing=0;targetPerimeterSpacing=0;endSize=10;exitX=0.75;exitY=1;exitDx=0;exitDy=0;" parent="1" source="h46Rm4Iv9E7iwNrBsxgi-5" target="h46Rm4Iv9E7iwNrBsxgi-36" edge="1">
                    <mxGeometry relative="1" as="geometry">
                        <mxPoint x="390" y="352" as="sourcePoint"/>
                    </mxGeometry>
                </mxCell>
                <mxCell id="h46Rm4Iv9E7iwNrBsxgi-36" value="" style="ellipse;whiteSpace=wrap;html=1;align=center;aspect=fixed;fillColor=none;strokeColor=none;resizable=0;perimeter=centerPerimeter;rotatable=0;allowArrows=0;points=[];outlineConnect=1;" parent="1" vertex="1">
                    <mxGeometry x="485" y="270" width="10" height="10" as="geometry"/>
                </mxCell>
                <mxCell id="h46Rm4Iv9E7iwNrBsxgi-37" value="InvitationsTopic&lt;br&gt;Write" style="text;html=1;align=center;verticalAlign=middle;resizable=0;points=[];autosize=1;strokeColor=none;fillColor=none;" parent="1" vertex="1">
                    <mxGeometry x="485" y="250" width="110" height="40" as="geometry"/>
                </mxCell>
                <mxCell id="h46Rm4Iv9E7iwNrBsxgi-39" value="" style="rounded=0;orthogonalLoop=1;jettySize=auto;html=1;endArrow=halfCircle;endFill=0;endSize=6;strokeWidth=1;sketch=0;exitX=0.5;exitY=0;exitDx=0;exitDy=0;" parent="1" source="h46Rm4Iv9E7iwNrBsxgi-3" target="h46Rm4Iv9E7iwNrBsxgi-41" edge="1">
                    <mxGeometry relative="1" as="geometry">
                        <mxPoint x="430" y="325" as="sourcePoint"/>
                    </mxGeometry>
                </mxCell>
                <mxCell id="h46Rm4Iv9E7iwNrBsxgi-40" value="" style="rounded=0;orthogonalLoop=1;jettySize=auto;html=1;endArrow=oval;endFill=0;sketch=0;sourcePerimeterSpacing=0;targetPerimeterSpacing=0;endSize=10;exitX=0.5;exitY=1;exitDx=0;exitDy=0;" parent="1" source="h46Rm4Iv9E7iwNrBsxgi-5" target="h46Rm4Iv9E7iwNrBsxgi-41" edge="1">
                    <mxGeometry relative="1" as="geometry">
                        <mxPoint x="390" y="325" as="sourcePoint"/>
                    </mxGeometry>
                </mxCell>
                <mxCell id="h46Rm4Iv9E7iwNrBsxgi-41" value="" style="ellipse;whiteSpace=wrap;html=1;align=center;aspect=fixed;fillColor=none;strokeColor=none;resizable=0;perimeter=centerPerimeter;rotatable=0;allowArrows=0;points=[];outlineConnect=1;" parent="1" vertex="1">
                    <mxGeometry x="490" y="370" width="10" height="10" as="geometry"/>
                </mxCell>
                <mxCell id="h46Rm4Iv9E7iwNrBsxgi-42" value="NewCommitsTopic&lt;br&gt;Write" style="text;html=1;align=center;verticalAlign=middle;resizable=0;points=[];autosize=1;strokeColor=none;fillColor=none;" parent="1" vertex="1">
                    <mxGeometry x="450" y="330" width="120" height="40" as="geometry"/>
                </mxCell>
                <mxCell id="h46Rm4Iv9E7iwNrBsxgi-43" value="MicroServices" style="shape=umlFrame;whiteSpace=wrap;html=1;pointerEvents=0;width=100;height=30;" parent="1" vertex="1">
                    <mxGeometry x="10" y="10" width="770" height="520" as="geometry"/>
                </mxCell>
                <mxCell id="h46Rm4Iv9E7iwNrBsxgi-44" value="Email service" style="shape=module;align=left;spacingLeft=20;align=center;verticalAlign=top;whiteSpace=wrap;html=1;" parent="1" vertex="1">
                    <mxGeometry x="310" y="-100" width="146" height="50" as="geometry"/>
                </mxCell>
                <mxCell id="h46Rm4Iv9E7iwNrBsxgi-45" value="" style="rounded=0;orthogonalLoop=1;jettySize=auto;html=1;endArrow=halfCircle;endFill=0;endSize=6;strokeWidth=1;sketch=0;exitX=0.5;exitY=0;exitDx=0;exitDy=0;" parent="1" source="h46Rm4Iv9E7iwNrBsxgi-2" target="h46Rm4Iv9E7iwNrBsxgi-47" edge="1">
                    <mxGeometry relative="1" as="geometry">
                        <mxPoint x="410" y="-25" as="sourcePoint"/>
                    </mxGeometry>
                </mxCell>
                <mxCell id="h46Rm4Iv9E7iwNrBsxgi-46" value="" style="rounded=0;orthogonalLoop=1;jettySize=auto;html=1;endArrow=oval;endFill=0;sketch=0;sourcePerimeterSpacing=0;targetPerimeterSpacing=0;endSize=10;exitX=0.5;exitY=1;exitDx=0;exitDy=0;" parent="1" source="h46Rm4Iv9E7iwNrBsxgi-44" target="h46Rm4Iv9E7iwNrBsxgi-47" edge="1">
                    <mxGeometry relative="1" as="geometry">
                        <mxPoint x="370" y="-25" as="sourcePoint"/>
                    </mxGeometry>
                </mxCell>
                <mxCell id="h46Rm4Iv9E7iwNrBsxgi-47" value="" style="ellipse;whiteSpace=wrap;html=1;align=center;aspect=fixed;fillColor=none;strokeColor=none;resizable=0;perimeter=centerPerimeter;rotatable=0;allowArrows=0;points=[];outlineConnect=1;" parent="1" vertex="1">
                    <mxGeometry x="378" y="-30" width="10" height="10" as="geometry"/>
                </mxCell>
                <mxCell id="h46Rm4Iv9E7iwNrBsxgi-48" value="EmailService&lt;br&gt;Interface" style="text;html=1;align=center;verticalAlign=middle;resizable=0;points=[];autosize=1;strokeColor=none;fillColor=none;" parent="1" vertex="1">
                    <mxGeometry x="388" y="-40" width="90" height="40" as="geometry"/>
                </mxCell>
                <mxCell id="h46Rm4Iv9E7iwNrBsxgi-49" value="API Gateway" style="shape=module;align=left;spacingLeft=20;align=center;verticalAlign=top;whiteSpace=wrap;html=1;" parent="1" vertex="1">
                    <mxGeometry x="-260" y="200" width="150" height="50" as="geometry"/>
                </mxCell>
                <mxCell id="h46Rm4Iv9E7iwNrBsxgi-51" value="GitHub" style="shape=module;align=left;spacingLeft=20;align=center;verticalAlign=top;whiteSpace=wrap;html=1;" parent="1" vertex="1">
                    <mxGeometry x="520" y="910" width="150" height="50" as="geometry"/>
                </mxCell>
                <mxCell id="h46Rm4Iv9E7iwNrBsxgi-52" value="WebApp" style="shape=module;align=left;spacingLeft=20;align=center;verticalAlign=top;whiteSpace=wrap;html=1;" parent="1" vertex="1">
                    <mxGeometry x="50" y="940" width="150" height="50" as="geometry"/>
                </mxCell>
                <mxCell id="h46Rm4Iv9E7iwNrBsxgi-53" value="DBMS Sources" style="shape=module;align=left;spacingLeft=20;align=center;verticalAlign=top;whiteSpace=wrap;html=1;" parent="1" vertex="1">
                    <mxGeometry x="887" y="310" width="150" height="50" as="geometry"/>
                </mxCell>
                <mxCell id="h46Rm4Iv9E7iwNrBsxgi-54" value="DBMS Application" style="shape=module;align=left;spacingLeft=20;align=center;verticalAlign=top;whiteSpace=wrap;html=1;" parent="1" vertex="1">
                    <mxGeometry x="887" y="190" width="150" height="50" as="geometry"/>
                </mxCell>
                <mxCell id="h46Rm4Iv9E7iwNrBsxgi-56" value="" style="group" parent="1" vertex="1" connectable="0">
                    <mxGeometry y="600" width="300" height="200" as="geometry"/>
                </mxCell>
                <mxCell id="h46Rm4Iv9E7iwNrBsxgi-50" value="WebServer" style="shape=module;align=left;spacingLeft=20;align=center;verticalAlign=top;whiteSpace=wrap;html=1;" parent="h46Rm4Iv9E7iwNrBsxgi-56" vertex="1">
                    <mxGeometry x="70" y="80" width="150" height="50" as="geometry"/>
                </mxCell>
                <mxCell id="h46Rm4Iv9E7iwNrBsxgi-55" value="WebServer" style="shape=umlFrame;whiteSpace=wrap;html=1;pointerEvents=0;width=80;height=30;" parent="h46Rm4Iv9E7iwNrBsxgi-56" vertex="1">
                    <mxGeometry width="300" height="200" as="geometry"/>
                </mxCell>
                <mxCell id="h46Rm4Iv9E7iwNrBsxgi-57" value="Client" style="shape=umlFrame;whiteSpace=wrap;html=1;pointerEvents=0;" parent="1" vertex="1">
                    <mxGeometry x="-5" y="850" width="300" height="200" as="geometry"/>
                </mxCell>
                <mxCell id="h46Rm4Iv9E7iwNrBsxgi-58" value="" style="rounded=0;orthogonalLoop=1;jettySize=auto;html=1;endArrow=halfCircle;endFill=0;endSize=6;strokeWidth=1;sketch=0;exitX=-0.004;exitY=0.545;exitDx=0;exitDy=0;exitPerimeter=0;" parent="1" source="h46Rm4Iv9E7iwNrBsxgi-57" target="h46Rm4Iv9E7iwNrBsxgi-60" edge="1">
                    <mxGeometry relative="1" as="geometry">
                        <mxPoint y="685" as="sourcePoint"/>
                        <Array as="points">
                            <mxPoint x="-160" y="960"/>
                        </Array>
                    </mxGeometry>
                </mxCell>
                <mxCell id="h46Rm4Iv9E7iwNrBsxgi-59" value="" style="rounded=0;orthogonalLoop=1;jettySize=auto;html=1;endArrow=oval;endFill=0;sketch=0;sourcePerimeterSpacing=0;targetPerimeterSpacing=0;endSize=10;exitX=-0.01;exitY=0.799;exitDx=0;exitDy=0;exitPerimeter=0;" parent="1" source="h46Rm4Iv9E7iwNrBsxgi-55" target="h46Rm4Iv9E7iwNrBsxgi-60" edge="1">
                    <mxGeometry relative="1" as="geometry">
                        <mxPoint x="-40" y="685" as="sourcePoint"/>
                        <Array as="points">
                            <mxPoint x="-160" y="760"/>
                        </Array>
                    </mxGeometry>
                </mxCell>
                <mxCell id="h46Rm4Iv9E7iwNrBsxgi-60" value="" style="ellipse;whiteSpace=wrap;html=1;align=center;aspect=fixed;fillColor=none;strokeColor=none;resizable=0;perimeter=centerPerimeter;rotatable=0;allowArrows=0;points=[];outlineConnect=1;" parent="1" vertex="1">
                    <mxGeometry x="-165" y="820" width="10" height="10" as="geometry"/>
                </mxCell>
                <mxCell id="h46Rm4Iv9E7iwNrBsxgi-61" value="Web&lt;br&gt;&amp;nbsp;Interface" style="text;html=1;align=center;verticalAlign=middle;resizable=0;points=[];autosize=1;strokeColor=none;fillColor=none;" parent="1" vertex="1">
                    <mxGeometry x="-135" y="805" width="70" height="40" as="geometry"/>
                </mxCell>
                <mxCell id="h46Rm4Iv9E7iwNrBsxgi-62" value="" style="rounded=0;orthogonalLoop=1;jettySize=auto;html=1;endArrow=halfCircle;endFill=0;endSize=6;strokeWidth=1;sketch=0;exitX=-0.013;exitY=0.399;exitDx=0;exitDy=0;exitPerimeter=0;" parent="1" source="h46Rm4Iv9E7iwNrBsxgi-55" target="h46Rm4Iv9E7iwNrBsxgi-64" edge="1">
                    <mxGeometry relative="1" as="geometry">
                        <mxPoint x="-380" y="445" as="sourcePoint"/>
                        <Array as="points">
                            <mxPoint x="-185" y="680"/>
                        </Array>
                    </mxGeometry>
                </mxCell>
                <mxCell id="h46Rm4Iv9E7iwNrBsxgi-63" value="" style="rounded=0;orthogonalLoop=1;jettySize=auto;html=1;endArrow=oval;endFill=0;sketch=0;sourcePerimeterSpacing=0;targetPerimeterSpacing=0;endSize=10;exitX=0.5;exitY=1;exitDx=0;exitDy=0;" parent="1" source="h46Rm4Iv9E7iwNrBsxgi-49" target="h46Rm4Iv9E7iwNrBsxgi-64" edge="1">
                    <mxGeometry relative="1" as="geometry">
                        <mxPoint x="-420" y="445" as="sourcePoint"/>
                    </mxGeometry>
                </mxCell>
                <mxCell id="h46Rm4Iv9E7iwNrBsxgi-64" value="" style="ellipse;whiteSpace=wrap;html=1;align=center;aspect=fixed;fillColor=none;strokeColor=none;resizable=0;perimeter=centerPerimeter;rotatable=0;allowArrows=0;points=[];outlineConnect=1;" parent="1" vertex="1">
                    <mxGeometry x="-190" y="450" width="10" height="10" as="geometry"/>
                </mxCell>
                <mxCell id="h46Rm4Iv9E7iwNrBsxgi-65" value="Login&lt;br&gt;Interface" style="text;html=1;align=center;verticalAlign=middle;resizable=0;points=[];autosize=1;strokeColor=none;fillColor=none;" parent="1" vertex="1">
                    <mxGeometry x="-170" y="440" width="70" height="40" as="geometry"/>
                </mxCell>
                <mxCell id="h46Rm4Iv9E7iwNrBsxgi-66" value="" style="rounded=0;orthogonalLoop=1;jettySize=auto;html=1;endArrow=halfCircle;endFill=0;endSize=6;strokeWidth=1;sketch=0;exitX=0.001;exitY=0.415;exitDx=0;exitDy=0;exitPerimeter=0;" parent="1" source="h46Rm4Iv9E7iwNrBsxgi-43" target="h46Rm4Iv9E7iwNrBsxgi-68" edge="1">
                    <mxGeometry relative="1" as="geometry">
                        <mxPoint x="-410" y="165" as="sourcePoint"/>
                    </mxGeometry>
                </mxCell>
                <mxCell id="h46Rm4Iv9E7iwNrBsxgi-67" value="" style="rounded=0;orthogonalLoop=1;jettySize=auto;html=1;endArrow=oval;endFill=0;sketch=0;sourcePerimeterSpacing=0;targetPerimeterSpacing=0;endSize=10;exitX=1;exitY=0.5;exitDx=0;exitDy=0;" parent="1" source="h46Rm4Iv9E7iwNrBsxgi-49" target="h46Rm4Iv9E7iwNrBsxgi-68" edge="1">
                    <mxGeometry relative="1" as="geometry">
                        <mxPoint x="-450" y="165" as="sourcePoint"/>
                    </mxGeometry>
                </mxCell>
                <mxCell id="h46Rm4Iv9E7iwNrBsxgi-68" value="" style="ellipse;whiteSpace=wrap;html=1;align=center;aspect=fixed;fillColor=none;strokeColor=none;resizable=0;perimeter=centerPerimeter;rotatable=0;allowArrows=0;points=[];outlineConnect=1;" parent="1" vertex="1">
                    <mxGeometry x="-50" y="220" width="10" height="10" as="geometry"/>
                </mxCell>
                <mxCell id="h46Rm4Iv9E7iwNrBsxgi-69" value="API &lt;br&gt;Interface" style="text;html=1;align=center;verticalAlign=middle;resizable=0;points=[];autosize=1;strokeColor=none;fillColor=none;" parent="1" vertex="1">
                    <mxGeometry x="-75" y="180" width="70" height="40" as="geometry"/>
                </mxCell>
                <mxCell id="h46Rm4Iv9E7iwNrBsxgi-70" value="" style="rounded=0;orthogonalLoop=1;jettySize=auto;html=1;endArrow=halfCircle;endFill=0;endSize=6;strokeWidth=1;sketch=0;exitX=0.5;exitY=0;exitDx=0;exitDy=0;" parent="1" source="h46Rm4Iv9E7iwNrBsxgi-51" target="h46Rm4Iv9E7iwNrBsxgi-72" edge="1">
                    <mxGeometry relative="1" as="geometry">
                        <mxPoint x="530" y="475" as="sourcePoint"/>
                    </mxGeometry>
                </mxCell>
                <mxCell id="h46Rm4Iv9E7iwNrBsxgi-71" value="" style="rounded=0;orthogonalLoop=1;jettySize=auto;html=1;endArrow=oval;endFill=0;sketch=0;sourcePerimeterSpacing=0;targetPerimeterSpacing=0;endSize=10;exitX=0.5;exitY=1;exitDx=0;exitDy=0;" parent="1" source="h46Rm4Iv9E7iwNrBsxgi-3" target="h46Rm4Iv9E7iwNrBsxgi-72" edge="1">
                    <mxGeometry relative="1" as="geometry">
                        <mxPoint x="490" y="475" as="sourcePoint"/>
                    </mxGeometry>
                </mxCell>
                <mxCell id="h46Rm4Iv9E7iwNrBsxgi-72" value="" style="ellipse;whiteSpace=wrap;html=1;align=center;aspect=fixed;fillColor=none;strokeColor=none;resizable=0;perimeter=centerPerimeter;rotatable=0;allowArrows=0;points=[];outlineConnect=1;" parent="1" vertex="1">
                    <mxGeometry x="590" y="850" width="10" height="10" as="geometry"/>
                </mxCell>
                <mxCell id="h46Rm4Iv9E7iwNrBsxgi-73" value="GitHub&lt;br&gt;Interface" style="text;html=1;align=center;verticalAlign=middle;resizable=0;points=[];autosize=1;strokeColor=none;fillColor=none;" parent="1" vertex="1">
                    <mxGeometry x="610" y="835" width="70" height="40" as="geometry"/>
                </mxCell>
                <mxCell id="h46Rm4Iv9E7iwNrBsxgi-77" value="" style="rounded=0;orthogonalLoop=1;jettySize=auto;html=1;endArrow=halfCircle;endFill=0;endSize=6;strokeWidth=1;sketch=0;exitX=1.003;exitY=0.375;exitDx=0;exitDy=0;exitPerimeter=0;" parent="1" source="h46Rm4Iv9E7iwNrBsxgi-43" target="h46Rm4Iv9E7iwNrBsxgi-79" edge="1">
                    <mxGeometry relative="1" as="geometry">
                        <mxPoint x="850" y="140" as="sourcePoint"/>
                    </mxGeometry>
                </mxCell>
                <mxCell id="h46Rm4Iv9E7iwNrBsxgi-78" value="" style="rounded=0;orthogonalLoop=1;jettySize=auto;html=1;endArrow=oval;endFill=0;sketch=0;sourcePerimeterSpacing=0;targetPerimeterSpacing=0;endSize=10;exitX=0;exitY=0;exitDx=0;exitDy=15;exitPerimeter=0;" parent="1" source="h46Rm4Iv9E7iwNrBsxgi-54" target="h46Rm4Iv9E7iwNrBsxgi-79" edge="1">
                    <mxGeometry relative="1" as="geometry">
                        <mxPoint x="810" y="140" as="sourcePoint"/>
                    </mxGeometry>
                </mxCell>
                <mxCell id="h46Rm4Iv9E7iwNrBsxgi-79" value="" style="ellipse;whiteSpace=wrap;html=1;align=center;aspect=fixed;fillColor=none;strokeColor=none;resizable=0;perimeter=centerPerimeter;rotatable=0;allowArrows=0;points=[];outlineConnect=1;" parent="1" vertex="1">
                    <mxGeometry x="830" y="200" width="10" height="10" as="geometry"/>
                </mxCell>
                <mxCell id="h46Rm4Iv9E7iwNrBsxgi-80" value="DataAccess&lt;br&gt;&amp;nbsp;Interface" style="text;html=1;align=center;verticalAlign=middle;resizable=0;points=[];autosize=1;strokeColor=none;fillColor=none;" parent="1" vertex="1">
                    <mxGeometry x="790" y="160" width="90" height="40" as="geometry"/>
                </mxCell>
                <mxCell id="h46Rm4Iv9E7iwNrBsxgi-83" value="" style="rounded=0;orthogonalLoop=1;jettySize=auto;html=1;endArrow=halfCircle;endFill=0;endSize=6;strokeWidth=1;sketch=0;exitX=1.005;exitY=0.605;exitDx=0;exitDy=0;exitPerimeter=0;" parent="1" source="h46Rm4Iv9E7iwNrBsxgi-43" target="h46Rm4Iv9E7iwNrBsxgi-85" edge="1">
                    <mxGeometry relative="1" as="geometry">
                        <mxPoint x="850" y="325" as="sourcePoint"/>
                    </mxGeometry>
                </mxCell>
                <mxCell id="h46Rm4Iv9E7iwNrBsxgi-84" value="" style="rounded=0;orthogonalLoop=1;jettySize=auto;html=1;endArrow=oval;endFill=0;sketch=0;sourcePerimeterSpacing=0;targetPerimeterSpacing=0;endSize=10;exitX=0;exitY=0;exitDx=0;exitDy=15;exitPerimeter=0;" parent="1" source="h46Rm4Iv9E7iwNrBsxgi-53" target="h46Rm4Iv9E7iwNrBsxgi-85" edge="1">
                    <mxGeometry relative="1" as="geometry">
                        <mxPoint x="810" y="325" as="sourcePoint"/>
                    </mxGeometry>
                </mxCell>
                <mxCell id="h46Rm4Iv9E7iwNrBsxgi-85" value="" style="ellipse;whiteSpace=wrap;html=1;align=center;aspect=fixed;fillColor=none;strokeColor=none;resizable=0;perimeter=centerPerimeter;rotatable=0;allowArrows=0;points=[];outlineConnect=1;" parent="1" vertex="1">
                    <mxGeometry x="825" y="320" width="10" height="10" as="geometry"/>
                </mxCell>
                <mxCell id="h46Rm4Iv9E7iwNrBsxgi-86" value="SourceAccess&lt;br&gt;Interface" style="text;html=1;align=center;verticalAlign=middle;resizable=0;points=[];autosize=1;strokeColor=none;fillColor=none;" parent="1" vertex="1">
                    <mxGeometry x="780" y="330" width="100" height="40" as="geometry"/>
                </mxCell>
            </root>
        </mxGraphModel>
    </diagram>
</mxfile>